<?xml version="1.0" encoding="utf-8"?>
<!-- Generator: Adobe Illustrator 27.0.0, SVG Export Plug-In . SVG Version: 6.00 Build 0)  -->
<svg version="1.1" id="Layer_1" xmlns="http://www.w3.org/2000/svg" xmlns:xlink="http://www.w3.org/1999/xlink" x="0px" y="0px"
	 viewBox="0 0 100 100" style="enable-background:new 0 0 100 100;" xml:space="preserve">
<style type="text/css">
	.st0{fill:#16751F;}
	.st1{fill:#FFFFFF;}
</style>
<path class="st0" d="M50,10.4c-21.9,0-39.6,17.7-39.6,39.6S28.1,89.6,50,89.6S89.6,71.9,89.6,50S71.9,10.4,50,10.4z"/>
<path class="st1" d="M55.4,60.5h10.2l1.6-10.4H55.4v-5.7c0-4.3,1.4-8.2,5.5-8.2h6.5v-9.1c-1.1-0.2-3.6-0.5-8.1-0.5
	c-9.5,0-15.1,5-15.1,16.5v6.9h-9.8v10.4h9.8v28.6c1.9,0.3,3.9,0.5,5.9,0.5c1.8,0,3.6-0.2,5.4-0.4V60.5z"/>
</svg>
