<?xml version="1.0" encoding="utf-8"?>
<!-- Generator: Adobe Illustrator 27.0.0, SVG Export Plug-In . SVG Version: 6.00 Build 0)  -->
<svg version="1.1" id="Layer_1" xmlns="http://www.w3.org/2000/svg" xmlns:xlink="http://www.w3.org/1999/xlink" x="0px" y="0px"
	 viewBox="0 0 100 100" style="enable-background:new 0 0 100 100;" xml:space="preserve">
<style type="text/css">
	.st0{fill:#16751F;}
	.st1{fill:#FFFFFF;}
</style>
<path class="st0" d="M90,70.6c-0.8,4.4-4.4,7.7-8.8,8.3c-6.9,1-18.3,2.3-31.2,2.3c-12.7,0-24.2-1.2-31.2-2.3c-4.4-0.6-7.9-4-8.8-8.3
	C9.2,65.8,8.3,58.8,8.3,50S9.2,34.2,10,29.4c0.8-4.4,4.4-7.7,8.8-8.3c6.9-1,18.3-2.3,31.2-2.3S74.2,20,81.2,21
	c4.4,0.6,7.9,4,8.8,8.3c0.8,4.8,1.9,11.9,1.9,20.6C91.7,58.8,90.8,65.8,90,70.6z"/>
<path class="st1" d="M41.7,64.6V35.4l25,14.6L41.7,64.6z"/>
</svg>
